<?xml version="1.0" encoding="UTF-8" standalone="no"?><!DOCTYPE svg PUBLIC "-//W3C//DTD SVG 1.1//EN" "http://www.w3.org/Graphics/SVG/1.1/DTD/svg11.dtd"><svg width="100%" height="100%" viewBox="0 0 7821 1017" version="1.1" xmlns="http://www.w3.org/2000/svg" xmlns:xlink="http://www.w3.org/1999/xlink" xml:space="preserve" xmlns:serif="http://www.serif.com/" style="fill-rule:evenodd;clip-rule:evenodd;stroke-linejoin:round;stroke-miterlimit:2;"><path d="M7572.26,1015.62c136.276,-0 246.913,-113.771 246.913,-253.908l-0,-507.809c-0,-140.137 -110.637,-253.908 -246.913,-253.908l-7325.34,0c-136.273,0 -246.913,113.771 -246.913,253.908l0,507.813c0,140.133 110.64,253.904 246.913,253.904l7325.34,-0Z" style="fill:#666;fill-opacity:0.75;"/><path id="Color1" d="M7653.95,507.813c-0,191.616 -155.569,347.185 -347.185,347.185c-191.617,-0 -347.186,-155.569 -347.186,-347.185c0,-191.617 155.569,-347.186 347.186,-347.186c191.616,0 347.185,155.569 347.185,347.186Z" style="fill:#fff;"/><path id="Color2" d="M6683.94,507.813c-0,191.616 -155.569,347.185 -347.186,347.185c-191.616,-0 -347.185,-155.569 -347.185,-347.185c0,-191.617 155.569,-347.186 347.185,-347.186c191.617,0 347.186,155.569 347.186,347.186Z" style="fill:#fff;"/><path id="Color3" d="M5713.93,507.813c0,191.616 -155.568,347.185 -347.185,347.185c-191.617,-0 -347.185,-155.569 -347.185,-347.185c-0,-191.617 155.568,-347.186 347.185,-347.186c191.617,0 347.185,155.569 347.185,347.186Z" style="fill:#fff;"/><path id="Color4" d="M4743.92,507.813c0,191.616 -155.568,347.185 -347.185,347.185c-191.617,-0 -347.185,-155.569 -347.185,-347.185c-0,-191.617 155.568,-347.186 347.185,-347.186c191.617,0 347.185,155.569 347.185,347.186Z" style="fill:#fff;"/><path id="Color5" d="M3773.91,507.813c-0,191.616 -155.569,347.185 -347.185,347.185c-191.617,-0 -347.186,-155.569 -347.186,-347.185c0,-191.617 155.569,-347.186 347.186,-347.186c191.616,0 347.185,155.569 347.185,347.186Z" style="fill:#fff;"/><path id="Color6" d="M2803.89,507.813c-0,191.616 -155.569,347.185 -347.186,347.185c-191.616,-0 -347.185,-155.569 -347.185,-347.185c-0,-191.617 155.569,-347.186 347.185,-347.186c191.617,0 347.186,155.569 347.186,347.186Z" style="fill:#fff;"/><path id="Color7" d="M1829.6,507.813c-0,191.616 -155.569,347.185 -347.185,347.185c-191.617,-0 -347.186,-155.569 -347.186,-347.185c0,-191.617 155.569,-347.186 347.186,-347.186c191.616,0 347.185,155.569 347.185,347.186Z" style="fill:#fff;"/><path id="Color8" d="M859.586,507.813c-0,191.616 -155.569,347.185 -347.186,347.185c-191.616,-0 -347.185,-155.569 -347.185,-347.185c0,-191.617 155.569,-347.186 347.185,-347.186c191.617,0 347.186,155.569 347.186,347.186Z" style="fill:#fff;"/></svg>