<?xml version="1.0" encoding="UTF-8" standalone="no"?><!DOCTYPE svg PUBLIC "-//W3C//DTD SVG 1.1//EN" "http://www.w3.org/Graphics/SVG/1.1/DTD/svg11.dtd"><svg width="100%" height="100%" viewBox="0 0 1017 7821" version="1.1" xmlns="http://www.w3.org/2000/svg" xmlns:xlink="http://www.w3.org/1999/xlink" xml:space="preserve" xmlns:serif="http://www.serif.com/" style="fill-rule:evenodd;clip-rule:evenodd;stroke-linejoin:round;stroke-miterlimit:2;"><path d="M1015.62,248.577c0,-136.277 -113.771,-246.914 -253.908,-246.914l-507.809,0c-140.137,0 -253.908,110.637 -253.908,246.914l0,7325.34c0,136.273 113.771,246.913 253.908,246.913l507.813,0c140.133,0 253.904,-110.64 253.904,-246.913l0,-7325.34Z" style="fill:#666;fill-opacity:0.75;"/><g><circle id="Color1" cx="507.813" cy="514.064" r="347.185" style="fill:#fff;"/><circle id="Color2" cx="507.813" cy="1484.08" r="347.185" style="fill:#fff;"/><circle id="Color3" cx="507.813" cy="2454.09" r="347.185" style="fill:#fff;"/><circle id="Color4" cx="507.813" cy="3424.1" r="347.185" style="fill:#fff;"/><circle id="Color5" cx="507.813" cy="4394.11" r="347.185" style="fill:#fff;"/><circle id="Color6" cx="507.813" cy="5364.12" r="347.185" style="fill:#fff;"/><circle id="Color7" cx="507.813" cy="6338.42" r="347.185" style="fill:#fff;"/><circle id="Color8" cx="507.813" cy="7308.43" r="347.185" style="fill:#fff;"/></g></svg>