<?xml version="1.0" encoding="UTF-8" standalone="no"?>
<!DOCTYPE svg PUBLIC "-//W3C//DTD SVG 1.1//EN" "http://www.w3.org/Graphics/SVG/1.1/DTD/svg11.dtd">
<svg width="100%" height="100%" viewBox="0 0 260 90" version="1.1" xmlns="http://www.w3.org/2000/svg" xmlns:xlink="http://www.w3.org/1999/xlink" xml:space="preserve" xmlns:serif="http://www.serif.com/" style="fill-rule:evenodd;clip-rule:evenodd;">
    <g transform="matrix(0.956388,0,0,0.956388,5.66962,1.96256)">
        <path d="M260,45C260,20.164 239.836,0 215,0L45,0C20.164,0 0,20.164 0,45C0,69.836 20.164,90 45,90L215,90C239.836,90 260,69.836 260,45Z" style="fill-opacity:0.5;"/>
    </g>
    <g transform="matrix(0.956388,0,0,0.956388,5.66962,1.96256)">
        <path d="M257.5,45C257.5,21.544 238.456,2.5 215,2.5L45,2.5C21.544,2.5 2.5,21.544 2.5,45C2.5,68.456 21.544,87.5 45,87.5L215,87.5C238.456,87.5 257.5,68.456 257.5,45Z" style="fill:none;stroke:white;stroke-opacity:0.9;stroke-width:5px;"/>
    </g>
    <g transform="matrix(1.26041,0,0,0.848996,-385.106,-690.893)">
        <path d="M322.926,868.26C322.926,865.764 323.172,863.668 323.666,861.974C324.034,860.726 324.537,859.606 325.174,858.614C325.811,857.622 326.508,856.887 327.267,856.408C328.276,855.761 329.439,855.438 330.757,855.438C333.143,855.438 335.052,856.558 336.485,858.798C337.917,861.038 338.633,864.153 338.633,868.143C338.633,872.099 337.923,875.195 336.501,877.429C335.08,879.664 333.18,880.781 330.802,880.781C328.394,880.781 326.479,879.669 325.058,877.446C323.636,875.223 322.926,872.161 322.926,868.26ZM326.295,868.093C326.295,870.868 326.718,872.971 327.565,874.404C328.412,875.836 329.487,876.552 330.791,876.552C332.094,876.552 333.164,875.841 333.999,874.42C334.835,872.999 335.253,870.868 335.253,868.026C335.253,865.218 334.846,863.122 334.033,861.74C333.219,860.358 332.138,859.667 330.791,859.667C329.443,859.667 328.357,860.367 327.532,861.765C326.707,863.164 326.295,865.273 326.295,868.093Z" style="fill:white;fill-opacity:0.9;fill-rule:nonzero;"/>
    </g>
    <g transform="matrix(1.26041,0,0,0.848996,-385.106,-690.893)">
        <path d="M344.83,880.363L344.83,860.002L340.025,860.002L340.025,855.856L352.894,855.856L352.894,860.002L348.1,860.002L348.1,880.363L344.83,880.363Z" style="fill:white;fill-opacity:0.9;fill-rule:nonzero;"/>
    </g>
    <g transform="matrix(1.26041,0,0,0.848996,-385.106,-690.893)">
        <path d="M367.927,880.363L364.371,880.363L362.957,874.796L356.484,874.796L355.147,880.363L351.679,880.363L357.986,855.856L361.443,855.856L367.927,880.363ZM361.907,870.667L359.676,861.573L357.489,870.667L361.907,870.667Z" style="fill:white;fill-opacity:0.9;fill-rule:nonzero;"/>
    </g>
    <g transform="matrix(1.26041,0,0,0.848996,-385.106,-690.893)">
        <path d="M381.025,880.363L381.025,870.049L375.094,855.856L378.927,855.856L382.738,865.552L386.471,855.856L390.238,855.856L384.284,870.082L384.284,880.363L381.025,880.363Z" style="fill:white;fill-opacity:0.9;fill-rule:nonzero;"/>
    </g>
    <g transform="matrix(1.26041,0,0,0.848996,-385.106,-690.893)">
        <path d="M391.873,880.363L391.873,855.856L395.142,855.856L395.142,865.502L401.549,865.502L401.549,855.856L404.819,855.856L404.819,880.363L401.549,880.363L401.549,869.648L395.142,869.648L395.142,880.363L391.873,880.363Z" style="fill:white;fill-opacity:0.9;fill-rule:nonzero;"/>
    </g>
    <g transform="matrix(1.26041,0,0,0.848996,-385.106,-690.893)">
        <path d="M411.844,880.363L411.844,860.002L407.039,860.002L407.039,855.856L419.907,855.856L419.907,860.002L415.114,860.002L415.114,880.363L411.844,880.363Z" style="fill:white;fill-opacity:0.9;fill-rule:nonzero;"/>
    </g>
    <g transform="matrix(1.26041,0,0,0.848996,-385.106,-690.893)">
        <path d="M422.017,880.363L422.017,855.856L434.024,855.856L434.024,860.002L425.287,860.002L425.287,865.435L433.417,865.435L433.417,869.564L425.287,869.564L425.287,876.234L434.334,876.234L434.334,880.363L422.017,880.363Z" style="fill:white;fill-opacity:0.9;fill-rule:nonzero;"/>
    </g>
    <g transform="matrix(1.26041,0,0,0.848996,-385.106,-690.893)">
        <path d="M441.359,880.363L441.359,870.049L435.427,855.856L439.26,855.856L443.071,865.552L446.805,855.856L450.571,855.856L444.618,870.082L444.618,880.363L441.359,880.363Z" style="fill:white;fill-opacity:0.9;fill-rule:nonzero;"/>
    </g>
    <g transform="matrix(1.26041,0,0,0.848996,-385.106,-690.893)">
        <path d="M455.84,880.363L455.84,860.002L451.035,860.002L451.035,855.856L463.904,855.856L463.904,860.002L459.11,860.002L459.11,880.363L455.84,880.363Z" style="fill:white;fill-opacity:0.9;fill-rule:nonzero;"/>
    </g>
    <g transform="matrix(1.26041,0,0,0.848996,-385.106,-690.893)">
        <path d="M469.659,880.363L469.659,860.002L464.854,860.002L464.854,855.856L477.723,855.856L477.723,860.002L472.929,860.002L472.929,880.363L469.659,880.363Z" style="fill:white;fill-opacity:0.9;fill-rule:nonzero;"/>
    </g>
    <g transform="matrix(1.26041,0,0,0.848996,-385.106,-690.893)">
        <path d="M494.435,880.363L490.878,880.363L489.464,874.796L482.991,874.796L481.655,880.363L478.186,880.363L484.494,855.856L487.951,855.856L494.435,880.363ZM488.415,870.667L486.184,861.573L483.997,870.667L488.415,870.667ZM482.417,854.452L482.417,850.423L485.079,850.423L485.079,854.452L482.417,854.452ZM487.167,854.452L487.167,850.423L489.84,850.423L489.84,854.452L487.167,854.452Z" style="fill:white;fill-opacity:0.9;fill-rule:nonzero;"/>
    </g>
</svg>
