<?xml version="1.0" encoding="UTF-8" standalone="no"?><!DOCTYPE svg PUBLIC "-//W3C//DTD SVG 1.1//EN" "http://www.w3.org/Graphics/SVG/1.1/DTD/svg11.dtd"><svg width="100%" height="100%" viewBox="0 0 3334 3334" version="1.1" xmlns="http://www.w3.org/2000/svg" xmlns:xlink="http://www.w3.org/1999/xlink" xml:space="preserve" xmlns:serif="http://www.serif.com/" style="fill-rule:evenodd;clip-rule:evenodd;stroke-linejoin:round;stroke-miterlimit:2;"><circle cx="1666.67" cy="1666.67" r="1666.67" style="fill:#404040;"/><circle cx="1666.67" cy="1666.67" r="1529.42" style="fill:#404040;"/><path d="M1981.97,2174.91c-8.485,2.784 -144.698,49.184 -157.994,163.854c-10.615,91.54 84.181,349.264 84.932,396.953c4.305,273.158 -250.579,247.939 -250.579,247.939c0,0 -254.884,25.219 -250.578,-247.939c0.751,-47.689 95.547,-305.413 84.932,-396.953c-13.725,-118.363 -158.41,-163.988 -158.41,-163.988c0,-0 -292.252,-2.148 -348.638,-2.148c-75.183,-0 -136.221,-60.396 -136.221,-134.786l-0,-175.953l1617.83,4.438l-0,171.515c-0,74.39 -61.039,134.786 -136.221,134.786c-75.182,-0 -349.054,2.282 -349.054,2.282Zm485.275,-624.02l-1617.83,-12.898l-0,-784.777c-0,-74.39 61.038,-134.786 136.221,-134.786l1345.39,0c75.182,0 136.221,60.396 136.221,134.786l-0,797.675Z" style="fill:#e0995e;"/><path d="M2467.25,1889.28l-1617.83,-14.281l-0,-337.002l1617.83,16.755l-0,334.528Z" style="fill:#404040;"/><path d="M2467.25,1576.15l-1617.83,-12.899l-0,-304.392l1617.83,15.134l-0,302.157Z" style="fill:#4f5d73;"/><path d="M2467.25,1466.24c-0,-0 -127.409,56.123 -171.653,-38.298c-18.601,-39.694 4.134,-86.618 -17.135,-110.757c-21.269,-24.139 -109.43,-24.701 -131.779,4.26c-38.987,50.52 34.099,262.765 -110.663,264.779c-110.064,1.532 -61.177,-233.654 -93.786,-284.173c-16.749,-25.949 -83.926,-25.297 -110.39,-0c-32.68,31.239 8.484,168.214 -85.693,168.49c-136.215,0.4 -46.964,-192.96 -113.526,-191.695c-149.455,2.84 -783.206,4.26 -783.206,4.26l-0,-536.199c-0,-74.39 61.038,-134.786 136.221,-134.786c75.182,0 672.694,6.989 672.694,6.989c0,0 597.513,-6.989 672.695,-6.989c75.182,0 136.221,60.396 136.221,134.786l-0,719.333Z" style="fill:#b55b5e;"/></svg>