<?xml version="1.0" encoding="UTF-8" standalone="no"?><!DOCTYPE svg PUBLIC "-//W3C//DTD SVG 1.1//EN" "http://www.w3.org/Graphics/SVG/1.1/DTD/svg11.dtd"><svg width="100%" height="100%" viewBox="0 0 3334 3334" version="1.1" xmlns="http://www.w3.org/2000/svg" xmlns:xlink="http://www.w3.org/1999/xlink" xml:space="preserve" xmlns:serif="http://www.serif.com/" style="fill-rule:evenodd;clip-rule:evenodd;stroke-linejoin:round;stroke-miterlimit:2;"><circle cx="1666.67" cy="1666.67" r="1666.67" style="fill:#404040;"/><g><path d="M1666.34,2720.1l-0,-1111.44l947.268,-514.555l-6.86,1125.15l-940.408,500.834l-0,0.004Z" style="fill:#a9b0b7;"/><path d="M733.763,1094.1l-13.721,1132.02l946.292,493.973l-0,-1111.44l-932.571,-514.555" style="fill:#ced4df;"/><path d="M1666.34,606.988l947.268,487.111l-947.268,514.555l-932.571,-514.555l932.571,-487.111Z" style="fill:#e5e8ec;"/><path d="M2284.57,1680.84c96.545,53.183 115.731,203.819 42.82,336.179c-72.913,132.358 -210.489,196.639 -307.034,143.457c-96.544,-53.183 -115.731,-203.819 -42.819,-336.179c72.912,-132.358 210.489,-196.64 307.033,-143.457Z" style="fill:#ed4b44;"/><path d="M1878.61,1084.32c-1.2,-64.414 69.521,-118.047 157.832,-119.693c88.31,-1.647 160.982,49.314 162.182,113.728c1.201,64.415 -69.521,118.048 -157.831,119.694c-88.31,1.646 -160.983,-49.314 -162.183,-113.729Z" style="fill:#525d6e;"/><path d="M1120.49,1092.91c-1.201,-64.415 69.522,-118.048 157.832,-119.694c88.311,-1.645 160.982,49.314 162.183,113.73c1.201,64.414 -69.521,118.047 -157.833,119.693c-88.31,1.645 -160.981,-49.314 -162.182,-113.729Z" style="fill:#525d6e;"/><path d="M1265.74,1862.62c32.27,58.329 22.27,125.712 -22.319,150.381c-44.588,24.669 -106.988,-2.656 -139.259,-60.984c-32.271,-58.329 -22.27,-125.712 22.318,-150.381c44.589,-24.67 106.988,2.656 139.26,60.984Z" style="fill:#525d6e;"/><path d="M1556.29,1678.72c32.271,58.328 22.27,125.711 -22.318,150.38c-44.589,24.67 -106.989,-2.656 -139.26,-60.985c-32.271,-58.327 -22.27,-125.71 22.318,-150.381c44.589,-24.669 106.989,2.658 139.26,60.986Z" style="fill:#525d6e;"/><path d="M1556.29,2367.49c32.271,58.327 22.27,125.71 -22.318,150.38c-44.589,24.669 -106.989,-2.657 -139.26,-60.984c-32.271,-58.329 -22.27,-125.712 22.318,-150.381c44.589,-24.67 106.989,2.656 139.26,60.985Z" style="fill:#525d6e;"/><path d="M982.681,2067.16c32.272,58.327 22.271,125.71 -22.317,150.38c-44.589,24.67 -106.99,-2.657 -139.26,-60.985c-32.272,-58.328 -22.271,-125.711 22.317,-150.381c44.589,-24.669 106.99,2.657 139.26,60.986Z" style="fill:#525d6e;"/><path d="M986.848,1363.13c32.27,58.329 22.27,125.712 -22.319,150.381c-44.588,24.669 -106.989,-2.657 -139.259,-60.985c-32.272,-58.328 -22.271,-125.711 22.317,-150.38c44.59,-24.67 106.99,2.656 139.261,60.984Z" style="fill:#525d6e;"/></g></svg>